<svg width="1060" height="160" viewBox="0 0 1060 160" fill="none" xmlns="http://www.w3.org/2000/svg">
<path d="M524.77 55.1099V48.0899H581.09V55.1099H524.77ZM527.979 33.5899V26.6299H578.12L576.27 45.4799H567.62L568.859 33.5899H527.979ZM528.039 85.8499V69.3999H569.039V65.4999H528.039V59.3899H577.81V75.3199H536.81V79.4199H578.74V85.8599H528.039V85.8499Z" fill="#222222"/>
<path d="M584.05 84.4299V76.4999H607.83V64.9999H616.6V76.4999H640.37V84.4299H584.05ZM587.32 62.1299V41.0099H628.45V34.6999H587.32V27.4199H637.09V48.0899H595.96V54.7199H637.7V62.1299H587.31H587.32Z" fill="#222222"/>
<path d="M676.86 44.9701V55.8901H645.3V27.0301H653.64V33.8601H668.52V27.0301H676.86V37.2401H689.4V26.1201H698.04V57.8401H689.4V44.9701H676.86ZM656.73 79.5501H699.09V85.8501H647.9V69.9901H689.21V66.4201H647.9V60.3101H698.04V75.7801H656.73V79.5501ZM668.52 48.8701V40.8701H653.64V48.8701H668.52Z" fill="#222222"/>
<path d="M703.16 72.9901C709.77 68.5701 718.11 59.9901 718.11 43.1501V27.6801H726.75V43.1501C726.75 59.9901 735.03 68.5701 741.63 72.9901V83.3301C733.85 79.1701 725.64 71.4301 722.42 61.8801C719.15 71.4301 710.93 79.1701 703.15 83.3301V72.9901H703.16ZM748.24 85.8601V26.1201H757.01V85.8601H748.24Z" fill="#222222"/>
<path d="M761.89 84.4295V76.2995H818.21V84.4295H761.89ZM763.74 52.5795C776.21 51.6695 785.66 42.0495 785.66 33.6595V26.7695H794.43V33.6595C794.43 42.0395 803.94 51.6695 816.35 52.5795V60.5095C803.88 60.1195 793.93 53.3595 790.04 45.3695C786.15 53.3595 776.21 60.1195 763.73 60.5095V52.5795H763.74Z" fill="#222222"/>
<path d="M822.9 34.1804V27.3604H849.21V34.1804H822.9ZM822.9 60.1203V38.1504H846.43V44.9104H830.81V52.7104L851.99 51.2204V57.9804L822.9 60.1203ZM825.49 85.8604V64.0804H876.5V85.8604H868.04V84.0404L825.49 85.8604ZM833.95 78.4503L868.04 77.1504V70.9704H833.95V78.4503ZM856.37 61.6104V46.2004H849.27V38.9203H856.37V26.1104H864.09V61.6003H856.37V61.6104ZM868.72 61.6104V26.1204H876.5V61.6104H868.72Z" fill="#222222"/>
<path d="M936.77 58.8803H924.6V64.8003C930.53 65.0003 934.42 69.8703 934.42 75.4003C934.42 80.9303 930.35 86.0603 924.23 86.0603H892.98C886.87 86.0603 882.79 81.1803 882.79 75.4003C882.79 69.9403 886.62 65.1303 892.42 64.8003L893.59 58.8803H880.44V51.6703H936.76V58.8803H936.77ZM893.48 47.8303C887.68 47.8303 883.1 43.2103 883.1 37.1103C883.1 31.0103 887.67 26.3203 893.48 26.3203H923.74C929.42 26.3203 934.11 31.0003 934.11 37.1103C934.11 43.2203 929.42 47.8303 923.74 47.8303H893.48ZM922.13 71.6903H894.9C892.68 71.6903 891.07 73.2503 891.07 75.2603C891.07 77.4003 892.68 78.9703 894.9 78.9703H922.13C924.41 78.9703 926.08 77.4103 926.08 75.2603C926.08 73.2403 924.41 71.6903 922.13 71.6903ZM895.39 33.4703C893.23 33.4703 891.56 34.9003 891.56 37.1103C891.56 39.3203 893.23 40.8203 895.39 40.8203H921.88C924.04 40.8203 925.71 39.3203 925.71 37.1103C925.71 34.9003 924.04 33.4703 921.88 33.4703H895.39ZM916.32 58.8903H901.99L900.76 64.8103H916.32V58.8903Z" fill="#222222"/>
<path d="M940.35 37.4304V30.6104H954.24V24.6904H963.07V30.6104H976.96V37.4304H940.34H940.35ZM950.35 39.9704H966.96C971.78 39.9704 975.85 44.0004 975.85 49.7204C975.85 55.4404 971.78 59.4104 966.96 59.4104H950.35C945.53 59.4104 941.46 55.4504 941.46 49.7204C941.46 43.9904 945.53 39.9704 950.35 39.9704ZM944.05 85.8604V62.4604H952.69V67.0104H983.69V62.4604H992.33V85.8604H983.69V84.0404L944.05 85.8604ZM964.3 52.8404C966.77 52.8404 968.07 51.4104 968.07 49.7204C968.07 48.0304 966.77 46.6004 964.3 46.6004H953.12C950.65 46.6004 949.35 48.0304 949.35 49.7204C949.35 51.4104 950.65 52.8404 953.12 52.8404H964.3ZM952.69 78.6504L983.69 77.3504V73.5804H952.69V78.6504ZM983.69 60.3804V26.1204H992.33V38.2104H999.74V46.0804H992.33V60.3804H983.69Z" fill="#222222"/>
<path d="M999.26 84.9501V77.0201L1010.69 76.2401V49.3301H1019.03V75.6601L1040.15 74.1601V82.0901L999.27 84.9501H999.26ZM1025.88 69.2201L1027.55 35.2901H1001.92V27.4201H1036.25L1034.21 69.2201H1025.87H1025.88ZM1042.74 85.8601V26.1201H1051.38V49.4601H1059.04V57.7201H1051.38V85.8701H1042.74V85.8601Z" fill="#222222"/>
<path d="M148.15 27.8096H137.49V36.1296H134.96V27.8096H124.29V25.7796H148.14V27.8096H148.15ZM145.61 13.1096V15.1096H137.83C138.17 16.8996 139.2 18.3496 140.92 19.4396C142.4 20.3896 144.33 21.0496 146.75 21.4496C146.39 21.7796 146.08 22.1196 145.78 22.4696C145.53 22.7496 145.29 23.0596 145.03 23.4296C143.11 22.9996 141.33 22.2896 139.67 21.2896C137.95 20.2896 136.8 19.2396 136.23 18.1496C135.73 19.2396 134.66 20.2896 133.03 21.2896C131.35 22.3096 129.56 22.9996 127.64 23.3496C127.35 22.9896 127.06 22.6296 126.76 22.2896C126.42 21.9196 126.08 21.5996 125.75 21.3196C128.16 21.0196 130.12 20.4096 131.63 19.4596C133.33 18.3896 134.35 16.9396 134.67 15.0996H126.84V13.0996H145.6L145.61 13.1096Z" fill="#1C1C1B"/>
<path d="M173.47 25.3705H162.81V30.4805H160.29V25.3705H149.62V23.3705H173.48V25.3705H173.47ZM155.78 29.0205C155.86 29.1405 155.78 29.3505 155.6 29.6405C155.55 29.7305 155.5 29.7905 155.47 29.8205C155.45 29.8705 155.44 29.9305 155.44 29.9805V33.5405H170.56V35.5805H152.92V28.7305H154.5C155.25 28.7305 155.67 28.8305 155.78 29.0305V29.0205ZM170.04 12.7305V20.7105H153.15V12.7305H170.04ZM155.67 14.7305V18.6905H167.51V14.7305H155.67Z" fill="#1C1C1B"/>
<path d="M184.18 12.9104C184.27 13.0004 184.24 13.2104 184.1 13.5604C183.99 13.7904 183.93 13.9704 183.89 14.1104C183.82 14.3704 183.79 14.6204 183.81 14.8604C183.97 16.8404 184.58 18.5904 185.66 20.0904C186.78 21.6704 188.32 22.8404 190.26 23.5704C189.98 23.7804 189.71 24.0304 189.46 24.3104C189.3 24.4804 189.09 24.7404 188.81 25.0604L188.5 25.4504C187.08 24.7604 185.83 23.7804 184.75 22.5404C183.76 21.4204 183.05 20.2504 182.62 19.0204C182.27 20.2504 181.4 21.6504 179.99 23.2104C178.66 24.6504 177.37 25.7404 176.08 26.5004C175.77 26.1104 175.46 25.7604 175.13 25.4504C174.78 25.1104 174.43 24.8204 174.09 24.5904C176.06 23.9704 177.75 22.6204 179.16 20.5604C180.72 18.2604 181.41 15.6404 181.23 12.7304H182.93C183.61 12.7304 184.03 12.7804 184.18 12.9104ZM195.95 36.1404H193.42V29.7404H178.9V27.7004H195.96V36.1304L195.95 36.1404ZM196.17 12.4104C196.24 12.5204 196.2 12.7004 196.07 12.9604C196.03 13.0604 195.98 13.1304 195.97 13.1704C195.95 13.2304 195.95 13.3004 195.95 13.3704V25.8704H193.42V12.1504H195.19C195.76 12.1504 196.09 12.2404 196.18 12.4204L196.17 12.4104Z" fill="#1C1C1B"/>
<path d="M208.63 22.6395C208.69 22.7495 208.65 22.9295 208.51 23.2095C208.46 23.2995 208.42 23.3695 208.41 23.4095C208.39 23.4995 208.38 23.5795 208.38 23.6395V31.2995H212.34V22.4095H214.08C214.7 22.4095 215.06 22.4795 215.16 22.6495C215.22 22.7595 215.16 22.9395 215 23.2195C214.95 23.3095 214.9 23.3795 214.87 23.4195C214.85 23.5095 214.84 23.5895 214.84 23.6495V31.3095H224.07V33.3095H200.22V31.3095H205.83V22.4195H207.5C208.14 22.4195 208.5 22.4895 208.61 22.6595L208.63 22.6395ZM221.34 14.2795C221.34 16.4795 221.21 18.9795 220.94 21.7695C220.74 24.2495 220.48 26.3895 220.18 28.1895C219.6 28.1395 219.15 28.0995 218.86 28.0595C218.38 28.0295 217.99 28.0095 217.66 28.0095C217.92 26.5595 218.17 24.5995 218.42 22.0995C218.68 19.5395 218.81 17.6195 218.81 16.2995H202.5V14.2695H221.34V14.2795Z" fill="#1C1C1B"/>
<path d="M231.79 24.3001H225.56V22.3001H249.41V24.3001H243.17V27.7601H245.67V36.1401H243.15V29.7901H228.47V27.7601H231.8V24.3001H231.79ZM244.28 13.4001C245.8 14.1801 246.57 15.2101 246.57 16.5001C246.57 17.7101 245.81 18.7201 244.28 19.5301C242.62 20.4201 240.35 20.8701 237.48 20.8701C234.61 20.8701 232.31 20.4301 230.67 19.5301C229.14 18.7201 228.38 17.7101 228.38 16.5001C228.38 15.2201 229.15 14.1801 230.67 13.4001C232.31 12.5501 234.58 12.1201 237.48 12.1201C240.38 12.1201 242.63 12.5601 244.28 13.4001ZM232.52 14.7701C231.43 15.1901 230.9 15.7601 230.9 16.5001C230.9 17.1801 231.43 17.7201 232.52 18.1401C233.7 18.6101 235.35 18.8501 237.48 18.8501C239.61 18.8501 241.23 18.6201 242.4 18.1401C243.48 17.7301 244.04 17.1801 244.04 16.5001C244.04 15.7601 243.48 15.1901 242.4 14.7701C241.26 14.3601 239.62 14.1501 237.48 14.1501C235.34 14.1501 233.66 14.3601 232.52 14.7701ZM240.64 24.3001H234.32V27.7601H240.64V24.3001Z" fill="#1C1C1B"/>
<path d="M259.5 28.8796C261.7 28.7196 264.46 28.4896 267.77 28.1696L267.92 30.4096L261.4 30.8696C259.29 31.0296 257.76 31.1396 256.85 31.2096C255.32 31.3196 254.2 31.3896 253.47 31.4196C253.18 31.4196 252.89 31.4696 252.61 31.5796C252.45 31.6296 252.26 31.7197 252.01 31.8596C251.67 32.0296 251.44 32.0996 251.33 32.0196C251.18 31.9096 251.08 31.5196 251.02 30.8696L250.85 29.2796C253.22 29.2596 256.11 29.1196 259.51 28.8696L259.5 28.8796ZM254.06 22.9696C253.05 21.9696 252.55 20.6596 252.55 19.0396C252.55 17.4196 253.05 16.0196 254.06 14.9796C255.18 13.8196 256.81 13.2396 258.95 13.2396C261.09 13.2396 262.62 13.8196 263.76 14.9796C264.78 16.0396 265.3 17.3896 265.3 19.0396C265.3 20.6896 264.81 21.9996 263.84 22.9696C262.72 24.0996 261.09 24.6596 258.92 24.6596C256.75 24.6596 255.18 24.0896 254.06 22.9696ZM255.98 16.3596C255.37 17.0196 255.07 17.9196 255.07 19.0396C255.07 20.1596 255.38 20.9596 255.98 21.6096C256.65 22.3196 257.64 22.6796 258.94 22.6796C260.24 22.6796 261.2 22.3096 261.85 21.6096C262.46 20.9596 262.76 20.1096 262.76 19.0396C262.76 17.9696 262.45 17.0096 261.85 16.3596C261.2 15.6296 260.22 15.2696 258.94 15.2696C257.66 15.2696 256.64 15.6196 255.98 16.3596ZM272.18 12.3796C272.22 12.4896 272.15 12.6496 272 12.8696C271.95 12.9496 271.92 12.9896 271.91 13.0096C271.89 13.0596 271.88 13.0996 271.88 13.1296V36.1297H269.36V12.1396H271.31C271.83 12.1396 272.13 12.2196 272.19 12.3796H272.18Z" fill="#1C1C1B"/>
<path d="M292.92 13.0096C293.01 13.0896 292.98 13.2896 292.84 13.6196C292.72 13.8996 292.64 14.1396 292.58 14.3296C292.49 14.6396 292.46 14.9596 292.48 15.2896C292.52 16.8696 293.2 18.5696 294.54 20.3396C295.89 22.1596 297.42 23.3496 299.12 23.9296C298.79 24.1696 298.44 24.4796 298.05 24.8696C297.81 25.0896 297.48 25.4396 297.06 25.8796C295.71 25.0396 294.5 24.0196 293.44 22.7896C292.42 21.5696 291.69 20.3296 291.24 19.0596C290.7 20.5996 289.82 22.0596 288.59 23.4296C287.48 24.6396 286.2 25.6896 284.76 26.5496C284.4 26.1096 284.1 25.7596 283.85 25.5096C283.54 25.1796 283.21 24.8996 282.89 24.6496C285.07 23.9096 286.84 22.4196 288.19 20.2296C289.58 17.9696 290.19 15.5096 290.01 12.8496H291.67C292.38 12.8496 292.8 12.8996 292.92 13.0096ZM290.4 28.8296C290.45 28.9296 290.4 29.1196 290.24 29.4096C290.21 29.4896 290.18 29.5496 290.15 29.5796C290.15 29.6296 290.13 29.6796 290.13 29.7396V33.5096H305.38V35.5196H287.58V28.5596H289.32C289.92 28.5596 290.28 28.6496 290.38 28.8296H290.4ZM305.08 12.4096C305.13 12.5396 305.08 12.7596 304.93 13.0896C304.86 13.2196 304.82 13.3296 304.8 13.3996C304.76 13.5296 304.75 13.6296 304.75 13.7296V21.6696H308.26V23.6896H304.75V30.8196H302.22V12.1396H304.01C304.63 12.1396 304.98 12.2296 305.09 12.4096H305.08Z" fill="#1C1C1B"/>
<path d="M318.34 12.7796C318.42 12.8596 318.4 13.0596 318.28 13.3696C318.18 13.6096 318.11 13.7796 318.07 13.9196C318.02 14.1496 318 14.3696 318.02 14.6096C318.14 16.2796 318.83 17.8496 320.08 19.3196C321.24 20.7096 322.63 21.7196 324.24 22.3496C323.86 22.5896 323.51 22.8896 323.17 23.2596C322.88 23.5596 322.63 23.8996 322.45 24.2196C320.99 23.4096 319.74 22.4296 318.73 21.2996C317.75 20.2396 317.08 19.1996 316.72 18.1596C316.25 19.3796 315.39 20.6096 314.12 21.8496C312.87 23.0796 311.48 24.0796 309.96 24.8396C309.75 24.5396 309.48 24.2696 309.18 23.9996C308.95 23.7896 308.63 23.5396 308.22 23.2496C310.33 22.4296 312.09 21.0596 313.45 19.1396C314.92 17.0796 315.56 14.8896 315.41 12.5796H317.1C317.79 12.5796 318.21 12.6396 318.36 12.7696L318.34 12.7796ZM330.04 26.0696V31.8896H315.73V33.7696H330.97V35.7896H313.19V29.8596H327.53V28.0596H313.16V26.0596H330.04V26.0696ZM330.27 12.4096C330.33 12.5396 330.3 12.7396 330.18 13.0096C330.13 13.1096 330.08 13.1796 330.07 13.2096C330.05 13.2896 330.04 13.3496 330.04 13.4196V24.9996H327.53V12.1396H329.32C329.85 12.1396 330.18 12.2296 330.27 12.4096Z" fill="#1C1C1B"/>
<path d="M492.31 22.8604H338.66V24.0204H492.31V22.8604Z" fill="#1C1C1B"/>
<path d="M239.36 87.02H277.57V82.71H241.54V71.46H232.87V80.56C232.87 84.13 235.79 87.01 239.36 87.01V87.02Z" fill="#1C1C1B"/>
<path d="M251.39 51.1198L251.35 47.0798H262.86V42.7998H231.29V47.0798H242.76V51.1198C242.76 58.1898 237.03 63.9198 229.95 63.9198V68.2498C236.94 68.2498 243.12 65.5698 247.01 61.5198C250.91 65.6298 257.14 68.2498 264.18 68.2498V63.9198C257.12 63.9198 251.38 58.1898 251.38 51.1198H251.39Z" fill="#1C1C1B"/>
<path d="M223.66 41.7002H215.07V75.5202H221.82C222.83 75.5202 223.66 74.7002 223.66 73.6902V41.7102V41.7002Z" fill="#1C1C1B"/>
<path d="M438.54 75.8604H392.25V80.1504H430.01V87.0104H436.7C437.71 87.0104 438.55 86.1903 438.55 85.1703V75.8604H438.54Z" fill="#1C1C1B"/>
<path d="M185.44 87.02H223.65V82.71H187.61V71.46H178.96V80.56C178.96 84.13 181.87 87.01 185.44 87.01V87.02Z" fill="#1C1C1B"/>
<path d="M330.34 87.0502L330.31 82.7602H294.34V72.9502H285.65L285.68 80.5702C285.68 84.1502 288.58 87.0502 292.15 87.0502H330.33H330.34Z" fill="#1C1C1B"/>
<path d="M384.85 41.7002H376.27V57.4902H371.4V41.7002H362.82V78.7602H347.3V47.0402H358.5V42.7902H338.57L338.59 76.5602C338.59 80.1302 341.49 83.0402 345.07 83.0402H362.82V86.9402H369.57C370.58 86.9402 371.41 86.1202 371.41 85.1002V61.7702H376.27V86.9402H383.01C384.02 86.9402 384.86 86.1202 384.86 85.1002V41.7002H384.85Z" fill="#1C1C1B"/>
<path d="M443.43 53.0702H438.59V41.7002H430.01V73.3502H436.75C437.77 73.3502 438.59 72.5302 438.59 71.5102V57.3502H443.43V53.0702Z" fill="#1C1C1B"/>
<path d="M332.25 65.04H283.78V69.32H303.71V79.06H310.43C311.44 79.06 312.27 78.24 312.27 77.22L312.24 69.32H332.24V65.04H332.25Z" fill="#1C1C1B"/>
<path d="M277.6 41.7002H269.03V53.0702H258.8V57.3502H269.03V75.5102H275.77C276.78 75.5102 277.61 74.6902 277.61 73.6802V41.7002H277.6Z" fill="#1C1C1B"/>
<path d="M165.19 71.8202H168.27C169.28 71.8202 170.12 71.0002 170.12 69.9902L170.1 41.7002H161.52V46.8502H150.75C147.64 43.7902 142.7 41.8002 137.13 41.8002C127.71 41.8002 120.08 47.4402 120.08 54.4002C120.08 61.3602 127.71 66.9902 137.13 66.9902C142.63 66.9902 147.5 65.0702 150.61 62.0802H161.51V70.1702C157.65 68.7902 152.78 67.9602 147.47 67.9602C134.95 67.9602 124.81 72.5502 124.81 78.2002C124.81 83.8502 134.95 88.4502 147.47 88.4502C159.99 88.4502 170.12 83.8602 170.12 78.2002C170.12 75.7902 168.27 73.5802 165.19 71.8202ZM137.13 62.7702C132.5 62.7702 128.75 59.0102 128.75 54.3902C128.75 49.7702 132.5 46.0102 137.13 46.0102C141.76 46.0102 145.5 49.7702 145.5 54.3902C145.5 59.0102 141.75 62.7702 137.13 62.7702ZM147.47 84.2902C139.79 84.2902 133.57 81.5602 133.57 78.1902C133.57 74.8202 139.79 72.0902 147.47 72.0902C155.15 72.0902 161.35 74.8202 161.35 78.1902C161.35 81.5602 155.14 84.2902 147.47 84.2902ZM161.51 57.7802H153.52C153.93 56.7002 154.16 55.5602 154.16 54.3902C154.16 53.2202 153.94 52.1702 153.56 51.1202H161.5V57.7802H161.51Z" fill="#1C1C1B"/>
<path d="M420.66 41.7305H397.37V46.0105H420.66V41.7305Z" fill="#1C1C1B"/>
<path d="M426.03 48.4404H391.13V52.7304H426.03V48.4404Z" fill="#1C1C1B"/>
<path d="M408.9 54.5996C399.17 54.5996 391.29 58.5396 391.29 63.4096C391.29 68.2796 399.17 72.2096 408.9 72.2096C418.63 72.2096 426.51 68.2696 426.51 63.4096C426.51 58.5496 418.62 54.5996 408.9 54.5996ZM408.9 67.9496C403.95 67.9496 399.95 65.9196 399.95 63.4096C399.95 60.8996 403.96 58.8596 408.9 58.8596C413.84 58.8596 417.85 60.8996 417.85 63.4096C417.85 65.9196 413.84 67.9496 408.9 67.9496Z" fill="#1C1C1B"/>
<path d="M197.48 51.1198L197.43 47.0798H208.96V42.7998H177.38V47.0798H188.85V51.1198C188.85 58.1898 183.11 63.9198 176.05 63.9198V68.2498C183.03 68.2498 189.21 65.5698 193.11 61.5198C197 65.6298 203.23 68.2498 210.28 68.2498V63.9198C203.21 63.9198 197.48 58.1898 197.48 51.1198Z" fill="#1C1C1B"/>
<path d="M328.43 61.7298C329.44 61.7298 330.3 60.9398 330.3 59.9298V42.7798L285.57 42.7598V55.2498C285.57 58.8198 288.49 61.7598 292.06 61.7598L328.42 61.7398M294.23 47.1198H321.71V57.4998H294.23V47.1198Z" fill="#1C1C1B"/>
<path d="M477.19 80.0796V57.6996H468.68V80.0796H461.28V57.6996H452.77V80.0796H445.49V84.3596H493.96V80.0796H477.19ZM483.93 74.3996H490.61C491.63 74.3996 492.46 73.5596 492.46 72.5596V42.8096H446.86V47.0996H483.93V74.3996Z" fill="#1C1C1B"/>
<path d="M53.3 0C23.85 0 0 23.87 0 53.3C0 82.73 23.85 106.6 53.3 106.6C82.75 106.6 106.61 82.74 106.61 53.3C106.61 23.86 82.73 0 53.3 0Z" fill="#007FA0"/>
<path d="M99.2299 47.3196C99.3299 47.5196 99.4899 47.6696 99.6799 47.7496C99.8699 47.8396 100.11 47.8696 100.36 47.8296C100.65 47.7796 100.89 47.6696 101.04 47.4796C101.2 47.2996 101.28 47.0496 101.28 46.7596C101.28 46.6096 101.22 46.1796 101.1 45.4696L100.89 44.0896L98.6699 44.4296L98.8799 45.7396C99.0099 46.5896 99.1199 47.1096 99.2299 47.3196ZM49.1499 8.08961C49.4899 8.05961 49.7599 7.89961 49.9699 7.60961C50.1699 7.32961 50.2599 6.92961 50.2199 6.40961C50.1599 5.83961 49.9999 5.41961 49.7099 5.12961C49.4299 4.83961 49.1099 4.70961 48.7599 4.73961C48.4399 4.76961 48.1899 4.91961 47.9899 5.19961C47.7999 5.47961 47.7299 5.89961 47.7799 6.47961C47.8299 7.06961 47.9799 7.48961 48.2399 7.75961C48.4999 8.00961 48.8099 8.11961 49.1499 8.09961V8.08961ZM53.3099 1.34961C24.6599 1.34961 1.41992 24.5796 1.41992 53.2396C1.41992 81.8996 24.6599 105.12 53.3099 105.12C81.9599 105.12 105.2 81.8896 105.2 53.2396C105.2 24.5896 81.9599 1.34961 53.3099 1.34961ZM103.36 55.3296C103.31 56.4296 103.02 57.2596 102.51 57.7996C102 58.3396 101.34 58.6096 100.52 58.5996V56.8196C100.97 56.7596 101.32 56.6096 101.52 56.3696C101.74 56.1296 101.86 55.7596 101.87 55.2496C101.89 54.7296 101.8 54.3096 101.6 54.0096C101.47 53.8196 101.29 53.7196 101.07 53.7096C100.86 53.7096 100.68 53.7796 100.51 53.9496C100.31 54.1696 100.09 54.7096 99.8499 55.5696C99.6099 56.4296 99.3599 57.0596 99.1299 57.4696C98.8899 57.8796 98.5699 58.1896 98.1799 58.4096C97.7899 58.6296 97.3099 58.7196 96.7599 58.7096C96.2499 58.6796 95.7799 58.5296 95.3599 58.2196C94.9299 57.9196 94.6099 57.4996 94.4099 56.9796C94.2199 56.4596 94.1399 55.8096 94.1799 55.0396C94.2199 53.9196 94.5199 53.0696 95.0699 52.4996C95.6099 51.9196 96.3699 51.5896 97.3699 51.5196L97.4599 53.2596C96.8699 53.3396 96.4399 53.5396 96.1499 53.8396C95.8699 54.1596 95.7099 54.5796 95.6799 55.1196C95.6499 55.6896 95.7599 56.1396 95.9899 56.4396C96.2299 56.7396 96.4999 56.8996 96.8299 56.9096C97.0399 56.9296 97.2199 56.8796 97.3699 56.7496C97.5299 56.6296 97.6599 56.4296 97.7899 56.1196C97.8699 55.9196 98.0199 55.4396 98.2299 54.7096C98.5099 53.7596 98.8299 53.0996 99.1999 52.7196C99.7099 52.1996 100.31 51.9596 101.01 51.9796C101.46 51.9996 101.89 52.1396 102.26 52.4196C102.65 52.6896 102.93 53.0696 103.11 53.5596C103.3 54.0496 103.38 54.6396 103.35 55.3296H103.36ZM102.68 45.8296C102.82 46.7596 102.85 47.4496 102.77 47.8996C102.66 48.3396 102.45 48.7296 102.08 49.0396C101.72 49.3596 101.28 49.5596 100.76 49.6396C100.1 49.7396 99.5299 49.6296 99.0399 49.3196C98.5499 48.9996 98.1899 48.4596 97.9499 47.7096C97.7899 48.1296 97.5999 48.4796 97.3599 48.7796C97.1399 49.0696 96.7199 49.4696 96.0999 49.9996L94.5599 51.3396L94.2299 49.2296L95.9299 47.6596C96.5399 47.0996 96.9199 46.7296 97.0699 46.5196C97.2199 46.3296 97.3199 46.1296 97.3599 45.9296C97.3899 45.7296 97.3799 45.4396 97.3299 45.0296L97.2699 44.6696L93.6099 45.2396L93.3299 43.4696L102.09 42.1096L102.67 45.8396L102.68 45.8296ZM101.43 39.5296L100.02 40.0396L98.3999 35.5396L96.5499 36.2096L98.0599 40.3896L96.6599 40.8996L95.1499 36.7096L92.8799 37.5296L94.5599 42.1796L93.1599 42.6796L90.8699 36.3396L99.1999 33.3296L101.44 39.5096L101.43 39.5296ZM95.7799 26.9696L91.1599 32.1396L97.9399 30.8196L98.8799 32.4696L89.5899 34.0496L88.6499 32.3796L94.8199 25.2796L95.7699 26.9696H95.7799ZM94.2199 24.6796L87.0499 29.8896L85.9999 28.4396L93.1699 23.2396L94.2199 24.6896V24.6796ZM88.1999 17.5396L86.4199 24.2396L90.7099 20.1696L91.8499 21.3696L85.4399 27.4796L84.1999 26.1796L85.9299 19.6096L81.7399 23.5896L80.5999 22.3896L87.0199 16.2796L88.2199 17.5496L88.1999 17.5396ZM75.5599 16.3896C75.7599 15.9196 76.1499 15.2596 76.7199 14.4596L79.4699 10.6296L80.9299 11.6596L78.1399 15.5596C77.6799 16.1796 77.4099 16.5996 77.3299 16.8096C77.1799 17.1496 77.1499 17.4896 77.2499 17.8296C77.3699 18.1796 77.6199 18.4996 78.0199 18.7896C78.4399 19.0796 78.8099 19.2196 79.1499 19.1996C79.4799 19.1796 79.7599 19.0596 79.9699 18.8496C80.1899 18.6396 80.4999 18.2396 80.9099 17.6696L83.7599 13.6896L85.2199 14.7296L82.5099 18.5096C81.8999 19.3796 81.4199 19.9596 81.0799 20.2596C80.7399 20.5596 80.3899 20.7596 80.0099 20.8496C79.6199 20.9396 79.1799 20.9396 78.7399 20.8296C78.2699 20.7196 77.7599 20.4696 77.1899 20.0596C76.4999 19.5696 76.0499 19.1096 75.7999 18.6996C75.5599 18.2796 75.4199 17.8796 75.3999 17.4796C75.3799 17.0796 75.4299 16.7196 75.5699 16.3896H75.5599ZM63.4599 5.84961L63.8899 4.26961L69.6899 5.89961L69.3399 7.12961C68.7399 7.46961 68.0599 7.99961 67.3099 8.73961C66.5699 9.47961 65.9299 10.3196 65.3999 11.2296C64.8599 12.1496 64.4899 12.9996 64.2699 13.7796L62.6299 13.3196C62.9899 12.0996 63.5999 10.9396 64.4399 9.79961C65.2699 8.64961 66.2299 7.69961 67.2999 6.91961L63.4499 5.84961H63.4599ZM54.9499 3.15961L60.9299 3.72961L60.8199 4.98961C60.2799 5.42961 59.7099 6.07961 59.1199 6.94961C58.5199 7.81961 58.0399 8.74961 57.6799 9.74961C57.3199 10.7496 57.0999 11.6496 57.0299 12.4596L55.3299 12.2896C55.4799 11.0296 55.8599 9.76961 56.4699 8.49961C57.0899 7.22961 57.8599 6.11961 58.7799 5.15961L54.7799 4.78961L54.9499 3.15961ZM46.6799 4.30961C47.1799 3.68961 47.8599 3.35961 48.7099 3.27961C49.6399 3.19961 50.4299 3.48961 51.0999 4.15961C51.7499 4.82961 52.1499 5.97961 52.2999 7.62961C52.4499 9.29961 52.2399 10.5296 51.6899 11.3396C51.1299 12.1296 50.3499 12.5696 49.3599 12.6596C48.6499 12.7196 48.0499 12.5796 47.5799 12.2396C47.0999 11.8996 46.7599 11.3596 46.5799 10.6096L48.2599 10.2696C48.3299 10.6096 48.4599 10.8596 48.6499 11.0096C48.8399 11.1696 49.0799 11.2296 49.3599 11.1996C49.7199 11.1696 50.0199 10.9796 50.2399 10.6196C50.4599 10.2596 50.5499 9.54961 50.5399 8.50961C50.1499 9.05961 49.6199 9.36961 48.9499 9.41961C48.2399 9.48961 47.5899 9.25961 47.0099 8.74961C46.4499 8.23961 46.1099 7.53961 46.0399 6.64961C45.9499 5.71961 46.1699 4.93961 46.6699 4.32961L46.6799 4.30961ZM39.3999 6.53961C39.8099 5.98961 40.0399 5.41961 40.0999 4.82961L41.4599 4.44961L43.8899 13.3496L42.1799 13.8096L40.4399 7.40961C39.9799 8.14961 39.3699 8.78961 38.6099 9.28961L38.1799 7.75961C38.5899 7.48961 38.9999 7.07961 39.3999 6.53961ZM21.4799 14.7396L27.9699 17.2496L24.3699 12.5496L25.6899 11.5296L31.0799 18.5696L29.6499 19.6596L23.2999 17.2296L26.8199 21.8196L25.4899 22.8296L20.0999 15.7796L21.4799 14.7196V14.7396ZM17.5199 18.4296L23.9699 24.4996L22.7399 25.8096L16.2899 19.7296L17.5199 18.4296ZM13.9399 22.4396L18.5199 25.6796C19.1099 26.1096 19.5399 26.4796 19.7899 26.8196C20.1099 27.2596 20.2599 27.7596 20.2599 28.3096C20.2599 28.8596 20.0199 29.4396 19.5999 30.0496C19.0999 30.7596 18.4999 31.1696 17.8299 31.2596C17.1499 31.3696 16.4299 31.1496 15.6599 30.5996L16.4699 29.1096C16.8999 29.3896 17.2399 29.5396 17.4799 29.5496C17.8599 29.5696 18.1499 29.4296 18.3799 29.1096C18.6099 28.7796 18.6899 28.4896 18.5899 28.2196C18.4999 27.9596 18.1599 27.6096 17.5799 27.2096L12.9099 23.8996L13.9399 22.4496V22.4396ZM7.38992 33.1996C7.82992 32.1896 8.37992 31.4996 9.04992 31.1096C9.70992 30.7296 10.4599 30.6196 11.2799 30.7796L10.8799 32.5396C10.4399 32.4796 10.0399 32.5596 9.65992 32.7796C9.29992 32.9996 9.00992 33.3396 8.80992 33.8196C8.48992 34.5296 8.46992 35.1996 8.73992 35.8196C9.01992 36.4296 9.59992 36.9496 10.4899 37.3296C11.4499 37.7596 12.2699 37.8496 12.9399 37.6296C13.6099 37.3996 14.0899 36.9496 14.3999 36.2496C14.5499 35.9096 14.6199 35.5296 14.6399 35.1296C14.6599 34.7196 14.6199 34.3596 14.5299 34.0296L13.4999 33.5796L12.6899 35.4596L11.3099 34.8696L12.8399 31.3196L16.0799 32.7196C16.2599 33.2196 16.3399 33.8396 16.3099 34.5996C16.2699 35.3596 16.1299 36.0696 15.8299 36.7396C15.4599 37.5996 14.9599 38.2596 14.3299 38.7296C13.6899 39.2096 12.9799 39.4596 12.1799 39.4896C11.3799 39.5196 10.5799 39.3696 9.80992 39.0296C8.94992 38.6696 8.27992 38.1596 7.77992 37.5196C7.27992 36.8796 6.99992 36.1396 6.95992 35.2996C6.90992 34.6596 7.04992 33.9596 7.37992 33.1796L7.38992 33.1996ZM3.75992 46.5696L10.2199 43.9996L4.36992 42.9896L4.66992 41.3496L13.3999 42.8596L13.0899 44.6396L6.78992 47.1596L12.4799 48.1496L12.1999 49.7896L3.45992 48.2796L3.75992 46.5596V46.5696ZM3.51992 57.9896L8.31992 57.7096C9.07992 57.6696 9.55992 57.6196 9.77992 57.5596C10.1399 57.4596 10.4199 57.2696 10.6299 56.9596C10.8399 56.6596 10.9199 56.2596 10.8999 55.7596C10.8699 55.2496 10.7399 54.8796 10.5199 54.6196C10.2899 54.3796 10.0199 54.2396 9.71992 54.1996C9.41992 54.1696 8.90992 54.1696 8.20992 54.1996L3.31992 54.4796L3.22992 52.6996L7.87992 52.4296C8.93992 52.3696 9.68992 52.3796 10.1399 52.4496C10.5899 52.5196 10.9599 52.6796 11.2799 52.9196C11.5999 53.1696 11.8599 53.4996 12.0699 53.9296C12.2599 54.3596 12.3899 54.9196 12.4299 55.6196C12.4599 56.4596 12.4099 57.1096 12.2399 57.5496C12.0699 57.9996 11.8399 58.3596 11.5399 58.6296C11.2499 58.9096 10.9299 59.0896 10.5899 59.1896C10.0799 59.3296 9.33992 59.4296 8.34992 59.4896L3.63992 59.7596L3.53992 57.9696L3.51992 57.9896ZM4.27992 63.5796L5.71992 63.1696L7.00992 67.7696L8.88992 67.2396L7.69992 62.9596L9.12992 62.5596L10.3399 66.8396L12.6599 66.1896L11.3199 61.4196L12.7599 61.0096L14.5699 67.5096L6.03992 69.8996L4.26992 63.5696L4.27992 63.5796ZM14.0799 75.0596L11.0699 80.3296L10.0899 78.4696L12.1999 74.9796L8.13992 74.8196L7.17992 72.9996L13.2499 73.4796L16.5399 71.7396L17.3799 73.3196L14.0799 75.0596ZM18.3199 84.4796C17.4699 84.4796 16.7899 83.7896 16.7899 82.9496C16.7899 82.1096 17.4799 81.4196 18.3199 81.4196C19.1599 81.4196 19.8499 82.0996 19.8499 82.9496C19.8499 83.7996 19.1699 84.4796 18.3199 84.4796ZM58.8999 103.62V97.1896H56.6699V103.62H54.4099V97.1896H52.1399V103.62H49.8999V97.1896H47.6499V103.62H45.4199L45.4399 97.5896C45.4399 96.3596 46.4399 95.3696 47.6699 95.3696H52.1499V93.4696H54.4199V95.3596H58.9099C60.1299 95.3596 61.1399 96.3496 61.1399 97.5896V103.62H58.9099H58.8999ZM53.3199 92.4296C33.9299 92.4296 17.8499 78.3596 14.6999 59.8896L14.6699 59.7396C15.4399 60.8796 18.4599 62.1696 19.8399 61.7796C23.7399 71.0396 32.3699 67.8896 34.6399 66.0696C37.4899 63.8896 37.2099 63.0196 35.1499 64.5396C26.3899 70.1596 21.8799 61.8796 22.0299 58.8696C12.3199 55.1496 15.0499 43.9396 16.3699 40.1996C21.7399 24.9896 36.2599 14.0796 53.3199 14.0796C66.7999 14.0796 78.6899 20.8996 85.7499 31.2596C82.7799 30.9396 80.2199 30.8996 76.7599 31.2596C76.1399 31.3496 75.6199 31.7596 75.3799 32.2696C73.7099 36.3696 76.0499 42.1296 76.2899 43.7896C77.3799 48.9696 77.4299 52.4496 75.7999 56.6896C73.7199 61.9696 68.8799 63.9596 63.6699 64.3696C61.6499 66.9896 59.5399 69.2296 56.6399 70.5096C56.3699 70.5996 56.1199 70.6796 55.9299 70.3696C55.7999 70.0096 56.4399 69.8796 57.0499 69.1796C59.2399 66.8696 60.7299 63.7996 62.2199 59.3796C63.1599 56.2596 63.7299 52.7396 62.5699 46.9196C62.4599 46.4096 62.3599 46.1796 62.0399 46.1296C61.4999 46.0996 61.1099 46.6696 60.7899 49.2596C60.5199 51.2296 60.1199 53.1296 59.0799 54.7896C58.2999 56.1196 56.9899 56.9496 55.4699 56.9396C53.6199 56.9396 52.5699 55.5196 51.5499 54.2096C50.2199 52.7096 49.0399 52.0196 46.3999 51.9996C46.0999 51.9596 46.1199 51.7196 46.1999 51.5296C46.6999 50.5696 47.8799 50.3196 48.9699 50.2396C50.7799 50.2396 52.2699 50.8596 53.7299 51.8096C55.6599 52.9896 56.3999 52.5196 57.3899 51.6396C58.3999 50.6596 58.7199 49.3496 58.9099 48.0196C59.2599 45.0296 59.5199 41.8796 62.0799 40.2296C62.7199 39.8496 63.6099 39.8396 64.4199 40.0696C66.0199 40.7396 66.9499 42.4296 67.2899 43.8896C68.7199 49.3196 67.7499 58.5596 64.2199 63.5996C67.5699 63.1896 70.8599 59.3896 71.5699 55.9196C72.4899 51.2496 71.6399 46.3596 69.8599 41.3196C69.3499 40.1396 69.3199 38.7896 69.4599 37.6796C69.1099 37.9396 68.5299 38.1396 68.2199 38.2096C67.8699 38.2596 67.5299 38.0996 67.3299 37.7796C67.1999 37.3996 67.3799 36.9096 67.7599 36.6996C70.0199 35.5196 73.1999 32.7396 74.4299 30.3096C74.9499 29.1696 75.5399 27.2096 75.4799 25.8396C75.4499 24.9596 75.0499 23.6596 74.4099 23.1396C72.6499 21.8096 68.7799 23.5096 67.6899 23.9696C65.5799 24.9896 62.3199 26.9996 61.6299 27.4296C60.2699 28.2396 42.7199 28.3096 41.3399 36.7996C44.8399 35.8596 49.4699 35.3496 53.9099 35.3896C54.9599 35.3596 54.2799 35.8996 52.8599 36.5396C51.9099 36.9896 46.0699 39.6296 44.6599 40.6096C44.1299 40.9396 41.2499 39.4996 40.3999 37.1496C39.9299 37.2796 29.1499 40.1096 23.0299 45.4496C21.8399 46.7096 22.0299 48.6096 22.5399 48.5196C23.4899 48.4696 26.1099 46.5596 26.8299 48.7096C27.1499 49.6596 28.0999 53.8196 25.6799 56.7496C26.1799 58.8896 32.0699 64.7696 33.4999 63.8296C34.5399 63.0996 34.5199 62.3196 34.3699 61.0396C33.6799 56.0396 48.0999 53.1796 52.0399 62.8796C53.0199 62.3196 53.6899 61.2196 54.3899 60.2196C54.8699 59.3996 55.2299 59.4196 55.0799 61.1196C54.8999 64.0896 46.8999 74.3696 37.9399 65.3996C37.2999 64.7796 36.4699 65.3096 37.8299 68.2396C36.9499 68.2396 36.2999 68.4596 37.2999 71.1196C38.5799 74.6696 45.5699 79.8096 46.8599 77.8396C47.0599 77.5996 53.1299 73.5996 58.8799 75.6296C62.7099 77.0296 74.7999 74.3396 81.0299 57.8796C81.5099 55.9996 82.3899 55.0896 82.1699 57.5196C81.6999 62.5696 78.3699 72.6596 67.2799 78.5296C68.2999 78.8896 71.2999 80.4596 71.7999 80.8896C82.0699 76.9896 92.9299 59.1496 89.5799 42.0596C88.1499 34.7196 90.4699 40.8696 90.4699 40.8696C91.7699 44.7696 92.4799 48.9396 92.4799 53.2796C92.4799 74.9096 74.9399 92.4496 53.3099 92.4496L53.3199 92.4296ZM66.1099 28.2596C66.8599 27.4796 67.9199 26.8396 68.9299 26.3096C69.8199 25.9296 71.4899 25.3396 72.0899 25.8596C72.9799 26.7596 72.2499 28.2296 71.6999 29.0196C71.0299 30.1596 70.2899 30.9596 69.2199 31.7196C68.9099 31.9496 68.6099 31.7696 68.4099 31.5596C67.7399 30.6296 66.8299 29.6196 66.0799 28.9296C65.8799 28.7696 65.8799 28.4896 66.0999 28.2696L66.1099 28.2596ZM88.1299 84.4896C87.2899 84.4896 86.6099 83.7996 86.6099 82.9596C86.6099 82.1196 87.2999 81.4296 88.1299 81.4296C88.9599 81.4296 89.6699 82.1096 89.6699 82.9596C89.6699 83.8096 88.9799 84.4896 88.1299 84.4896ZM98.3799 74.9096L94.3099 75.1196L96.4499 78.5696L95.4899 80.3896L92.4699 75.0996L89.1699 73.3596L90.0099 71.7896L93.2999 73.5296L99.3499 73.0596L98.3699 74.9096H98.3799ZM99.8299 71.7896L98.4099 71.3396L99.1999 68.8396L92.1799 66.6196L92.7199 64.9096L99.7399 67.1296L100.53 64.6196L101.96 65.0696L99.8299 71.7796V71.7896ZM102.28 63.1396L93.5499 61.5596L93.8699 59.7996L102.6 61.3796L102.28 63.1396Z" fill="white"/>
<path d="M137.449 151.374H127.192L125.575 159.323H120L128.001 121.311H136.683L144.727 159.323H139.109L137.449 151.374ZM136.598 146.723L132.342 125.835L128.044 146.723H136.598Z" fill="#61CE70"/>
<path d="M145.979 121.311H151.639V159.323H145.979V121.311Z" fill="#61CE70"/>
<path d="M155.454 142.748V137.674C164.051 137.082 170.563 130.994 170.563 125.539V121.353H176.606V125.539C176.606 130.994 183.288 137.082 191.715 137.674V142.748C183.288 142.452 176.053 138.055 173.584 132.939C171.116 138.055 163.881 142.452 155.454 142.748ZM192.991 158.858H154.178V153.658H170.605V143.467H176.564V153.658H192.991V158.858Z" fill="#61CE70"/>
<path d="M231.592 126.638H196.439V121.776H231.592V126.638ZM232.018 144.567H196.013V139.746H203.035L201.971 127.865H207.674L208.695 139.746H219.293L220.314 127.865H226.017L224.91 139.746H232.018V144.567ZM233.422 158.858H194.609V153.615H233.422V158.858Z" fill="#61CE70"/>
<path d="M271.597 126.681H237.295V121.776H271.597V126.681ZM272.023 145.497H237.295V130.359H271.427V135.137H243.296V140.55H272.023V145.497ZM273.853 158.858H235.039V153.742H273.853V158.858Z" fill="#61CE70"/>
<path d="M299.771 154.207H291.728V149.387H299.771V120.93H305.006V159.789H299.771V154.207ZM313.773 159.789H308.453V120.93H313.773V159.789ZM277.087 131.966V128.626C277.087 123.848 281.343 121.057 286.621 121.057C291.855 121.057 296.154 123.848 296.154 128.626V131.966C296.154 136.744 291.855 139.535 286.621 139.535C281.343 139.535 277.087 136.744 277.087 131.966ZM286.663 135.095C288.919 135.095 290.791 133.869 290.791 132.051V128.541C290.791 126.681 288.919 125.497 286.663 125.497C284.408 125.497 282.492 126.681 282.492 128.541V132.051C282.492 133.869 284.408 135.095 286.663 135.095ZM283.727 146.342H275.47V141.48H298.111V146.342H289.344L286.365 159.789H280.747L283.727 146.342Z" fill="#61CE70"/>
<path d="M347.607 136.575V120.93H353.566V159.789H347.607V141.776H339.053V148.71C339.053 154.757 334.286 158.858 328.073 158.858C321.859 158.858 317.093 154.757 317.093 148.71V131.543C317.093 125.497 321.859 121.395 328.073 121.395C334.286 121.395 339.053 125.497 339.053 131.543V136.575H347.607ZM333.393 149.049V131.205C333.393 128.457 331.222 126.385 328.073 126.385C324.966 126.385 322.796 128.457 322.796 131.205V149.049C322.796 151.882 324.966 153.869 328.073 153.869C331.222 153.869 333.393 151.882 333.393 149.049Z" fill="#61CE70"/>
<path d="M395.009 159.789H389.69V120.93H395.009V136.364H399.733V120.93H405.096V159.789H399.733V141.564H395.009V159.789ZM367.729 158.647V153.192C377.646 150.021 380.412 139.704 380.412 127.696H367.942V122.495H385.944V126.342C385.944 147.188 378.624 155.941 367.729 158.647Z" fill="#61CE70"/>
<path d="M443.654 141.564H437.696V120.93H443.654V128.034H448.761V133.066H443.654V141.564ZM430.333 140.296H408.586V121.522H414.331V125.962H424.588V121.522H430.333V140.296ZM414.331 130.529V135.729H424.588V130.529H414.331ZM444.505 159.789H410.373V149.471H437.696V147.146H410.373V143.171H443.654V153.235H416.331V155.687H444.505V159.789Z" fill="#61CE70"/>
<path d="M483.915 159.789H477.957V120.93H483.915V136.11H489.192V141.48H483.915V159.789ZM448.208 158.14V151.755C452.421 149.767 458.209 144.355 458.252 133.362V127.907H449.059V122.664H473.19V127.907H464.04V133.362C464.082 144.355 469.87 149.767 474.084 151.755V158.14C468.934 156.279 463.359 151.628 461.146 145.285C458.89 151.628 453.358 156.279 448.208 158.14Z" fill="#61CE70"/>
<path d="M514.974 156.871H509.697V142.579H499.483V137.928H509.697V123.763H514.974V137.928H525.188V142.579H514.974V156.871Z" fill="#6C85E9"/>
<path d="M575.516 159.789H569.472V120.93H575.516V159.789ZM538.404 158.14V151.755C542.703 149.767 548.746 144.355 548.789 133.362V127.907H539.255V122.664H564.067V127.907H554.577V133.362C554.619 144.355 560.663 149.767 564.961 151.755V158.14C559.684 156.279 553.981 151.543 551.683 145.285C549.384 151.543 543.639 156.279 538.404 158.14Z" fill="#F9994B"/>
<path d="M615.223 133.742H580.708V120.888H586.581V129.133H615.223V133.742ZM617.266 142.072H578.452V137.252H617.266V142.072ZM580.069 152.643C580.069 148.71 582.878 145.412 587.091 145.412H608.584C612.797 145.412 615.648 148.71 615.648 152.643C615.648 156.575 612.797 159.915 608.584 159.915H587.091C582.878 159.915 580.069 156.575 580.069 152.643ZM588.453 155.137H607.179C608.754 155.137 609.903 154.038 609.903 152.516C609.903 151.078 608.754 150.021 607.179 150.021H588.453C586.921 150.021 585.815 151.078 585.815 152.516C585.815 154.038 586.921 155.137 588.453 155.137Z" fill="#F9994B"/>
<path d="M642.971 128.288H619.308V123.848H628.203V120H634.076V123.848H642.971V128.288ZM650.632 139.789H644.418V135.137H650.632V130.867H644.418V126.173H650.632V120.93H656.59V144.482H650.632V139.789ZM620.075 136.575C620.075 132.685 622.969 129.979 626.288 129.979H636.034C639.354 129.979 642.248 132.685 642.248 136.575C642.248 140.381 639.354 143.087 636.034 143.087H626.288C622.969 143.087 620.075 140.381 620.075 136.575ZM628.033 138.732H634.374C636.077 138.732 636.97 137.759 636.97 136.575C636.97 135.307 636.077 134.376 634.374 134.376H628.033C626.331 134.376 625.394 135.307 625.394 136.575C625.394 137.759 626.331 138.732 628.033 138.732ZM621.607 152.812C621.607 148.541 625.139 145.624 629.693 145.624H649.27C653.824 145.624 657.399 148.541 657.399 152.812C657.399 156.998 653.824 160 649.27 160H629.693C625.139 160 621.607 156.998 621.607 152.812ZM630.842 155.391H648.078C650.036 155.391 651.44 154.419 651.44 152.77C651.44 151.163 650.036 150.19 648.078 150.19H630.842C628.969 150.19 627.565 151.163 627.565 152.77C627.565 154.419 628.969 155.391 630.842 155.391Z" fill="#F9994B"/>
<path d="M706.929 144.355H672.201V130.613H700.545V126.512H672.201V121.776H706.503V135.222H678.159V139.535H706.929V144.355ZM708.759 158.858H669.945V153.7H686.33V146.216H692.374V153.7H708.759V158.858Z" fill="#F9994B"/>
<path d="M732.677 135.856V139.831H749.19V144.609H710.376V139.831H726.846V135.856H712.632V120.846H718.547V123.975H740.976V120.846H746.934V135.856H732.677ZM740.976 128.288H718.547V131.543H740.976V128.288ZM732.804 146.765V147.442C732.804 152.093 738.592 155.011 747.955 155.011V159.789C737.869 159.789 731.996 156.66 729.783 153.235C727.485 156.702 721.654 159.789 711.61 159.789V155.011C720.973 155.011 726.761 152.093 726.761 147.442V146.765H732.804Z" fill="#F9994B"/>
<path d="M774.767 141.015H767.703V135.983H774.767V120.93H780.087V159.789H774.767V141.015ZM788.939 159.789H783.577V120.93H788.939V159.789ZM751.232 158.14V151.797C755.361 148.626 758.297 142.918 758.297 133.277V127.653H751.658V122.664H770.299V127.653H763.702V133.277C763.702 142.918 766.639 148.626 770.809 151.797V158.14C766.596 155.899 762.596 151.628 761.021 146.258C759.404 151.628 755.446 155.899 751.232 158.14Z" fill="#F9994B"/>
<path d="M822.944 136.575V120.93H828.902V159.789H822.944V141.776H814.39V148.71C814.39 154.757 809.623 158.858 803.409 158.858C797.196 158.858 792.429 154.757 792.429 148.71V131.543C792.429 125.497 797.196 121.395 803.409 121.395C809.623 121.395 814.39 125.497 814.39 131.543V136.575H822.944ZM808.729 149.049V131.205C808.729 128.457 806.559 126.385 803.409 126.385C800.303 126.385 798.132 128.457 798.132 131.205V149.049C798.132 151.882 800.303 153.869 803.409 153.869C806.559 153.869 808.729 151.882 808.729 149.049Z" fill="#F9994B"/>
<path d="M870.346 159.789H865.026V120.93H870.346V136.364H875.07V120.93H880.432V159.789H875.07V141.564H870.346V159.789ZM843.066 158.647V153.192C852.982 150.021 855.748 139.704 855.748 127.696H843.279V122.495H861.281V126.342C861.281 147.188 853.961 155.941 843.066 158.647Z" fill="#F9994B"/>
<path d="M918.991 141.564H913.032V120.93H918.991V128.034H924.098V133.066H918.991V141.564ZM905.67 140.296H883.922V121.522H889.668V125.962H899.924V121.522H905.67V140.296ZM889.668 130.529V135.729H899.924V130.529H889.668ZM919.842 159.789H885.71V149.471H913.032V147.146H885.71V143.171H918.991V153.235H891.668V155.687H919.842V159.789Z" fill="#F9994B"/>
<path d="M959.251 159.789H953.293V120.93H959.251V136.11H964.529V141.48H959.251V159.789ZM923.544 158.14V151.755C927.758 149.767 933.546 144.355 933.588 133.362V127.907H924.396V122.664H948.526V127.907H939.376V133.362C939.419 144.355 945.207 149.767 949.42 151.755V158.14C944.271 156.279 938.695 151.628 936.482 145.285C934.227 151.628 928.694 156.279 923.544 158.14Z" fill="#F9994B"/>
<path d="M986.268 142.326C980.224 142.326 975.245 139.239 975.245 133.192V130.063C975.245 124.017 980.224 120.888 986.268 120.888C992.311 120.888 997.291 124.017 997.291 130.063V133.192C997.291 139.239 992.311 142.326 986.268 142.326ZM1010.48 143.763H1004.53V120.93H1010.48V125.074H1015.34V129.767H1010.48V133.573H1015.34V138.266H1010.48V143.763ZM986.31 137.759C989.332 137.759 991.673 136.237 991.673 133.362V129.894C991.673 127.019 989.332 125.455 986.31 125.455C983.246 125.455 980.948 127.019 980.948 129.894V133.362C980.948 136.237 983.246 137.759 986.31 137.759ZM1003.21 160H984.906C980.267 160 976.607 156.871 976.607 152.474C976.607 148.076 980.267 144.989 984.906 144.989H1003.21C1007.89 144.989 1011.55 148.076 1011.55 152.474C1011.55 156.871 1007.89 160 1003.21 160ZM986.055 155.307H1002.01C1004.06 155.307 1005.59 154.292 1005.59 152.474C1005.59 150.655 1004.06 149.683 1002.01 149.683H986.055C984.097 149.683 982.565 150.655 982.565 152.474C982.565 154.292 984.097 155.307 986.055 155.307Z" fill="#F9994B"/>
<path d="M1046.23 132.262H1036.74V127.273H1046.23V120.93H1052.19V143.848H1046.23V132.262ZM1015.25 143.002V137.59C1020.49 135.941 1024.53 131.966 1024.53 126.469V121.311H1030.44V126.469C1030.44 131.924 1034.44 135.687 1039.72 137.294V142.791C1034.32 141.48 1029.38 138.436 1027.51 134.545C1025.59 138.52 1020.61 141.607 1015.25 143.002ZM1017.55 152.474C1017.55 148.076 1021.21 144.989 1025.85 144.989H1044.66C1049.34 144.989 1053 148.076 1053 152.474C1053 156.871 1049.34 160 1044.66 160H1025.85C1021.21 160 1017.55 156.871 1017.55 152.474ZM1027 155.307H1043.47C1045.51 155.307 1047.04 154.292 1047.04 152.474C1047.04 150.655 1045.51 149.683 1043.47 149.683H1027C1025.04 149.683 1023.51 150.655 1023.51 152.474C1023.51 154.292 1025.04 155.307 1027 155.307Z" fill="#F9994B"/>
<line x1="124" y1="104.5" x2="1053" y2="104.5" stroke="#CCCCCC" stroke-opacity="0.8"/>
</svg>
